<svg xmlns="http://www.w3.org/2000/svg" viewBox="0 0 128 108">
<path fill="#6a4d33" d="M47.92,52.92 L48.06,52.73 L47.95,53.04 Z"/><path fill="#6a4d33" d="M47.92,52.92 L47.95,53.04 L47.78,53.25 Z"/><path fill="#815e3e" d="M37.43,53.27 L37.33,53.40 L37.22,53.09 Z"/><path fill="#7b5a3b" d="M37.43,53.27 L37.55,53.60 L37.33,53.40 Z"/><path fill="#6a4d33" d="M47.92,52.92 L47.78,53.25 L43.34,55.53 Z"/><path fill="#765639" d="M42.62,55.22 L37.55,53.60 L37.43,53.27 Z"/><path fill="#6a4d33" d="M47.92,52.92 L43.34,55.53 L43.47,55.19 Z"/><path fill="#765639" d="M42.62,55.22 L42.73,55.55 L37.55,53.60 Z"/><path fill="#6a4d33" d="M43.01,55.56 L43.05,55.55 L43.34,55.53 Z"/><path fill="#6a4d33" d="M43.01,55.56 L42.73,55.55 L43.05,55.55 Z"/><path fill="#6a4d33" d="M43.47,55.19 L43.34,55.53 L43.05,55.55 Z"/><path fill="#705236" d="M42.62,55.22 L43.05,55.55 L42.73,55.55 Z"/><path fill="#6a4d33" d="M43.47,55.19 L43.05,55.55 L43.06,55.28 Z"/><path fill="#725337" d="M42.62,55.22 L43.06,55.28 L43.05,55.55 Z"/><path fill="#6a4d33" d="M47.92,52.92 L48.06,21.31 L48.06,52.73 Z"/><path fill="#8f6845" d="M37.22,21.67 L37.43,53.27 L37.22,53.09 Z"/><path fill="#8a6542" d="M37.43,21.85 L42.62,55.22 L37.43,53.27 Z"/><path fill="#6a4d33" d="M43.47,23.77 L47.92,52.92 L43.47,55.19 Z"/><path fill="#6a4d33" d="M43.06,23.87 L43.47,55.19 L43.06,55.28 Z"/><path fill="#805d3d" d="M42.62,55.22 L43.06,23.87 L43.06,55.28 Z"/><path fill="#6a4d33" d="M47.92,52.92 L47.92,21.50 L48.06,21.31 Z"/><path fill="#8f6845" d="M37.22,21.67 L37.43,21.85 L37.43,53.27 Z"/><path fill="#6a4d33" d="M43.47,23.77 L47.92,21.50 L47.92,52.92 Z"/><path fill="#876241" d="M42.55,18.85 L47.46,20.78 L42.27,18.83 Z"/><path fill="#9b714a" d="M37.50,21.15 L41.95,18.87 L42.27,18.83 Z"/><path fill="#8a6542" d="M37.43,21.85 L42.62,23.80 L42.62,55.22 Z"/><path fill="#876241" d="M42.55,18.85 L47.74,20.80 L47.46,20.78 Z"/><path fill="#9b714a" d="M37.50,21.15 L42.27,18.83 L37.83,21.11 Z"/><path fill="#6a4d33" d="M43.06,23.87 L43.47,23.77 L43.47,55.19 Z"/><path fill="#805d3d" d="M42.62,55.22 L42.62,23.80 L43.06,23.87 Z"/><path fill="#815e3e" d="M47.46,20.78 L47.74,20.80 L47.95,21.00 Z"/><path fill="#6a4d33" d="M47.92,21.50 L47.95,21.00 L48.06,21.31 Z"/><path fill="#825e3e" d="M47.46,20.78 L47.95,21.00 L47.78,21.06 Z"/><path fill="#6a4d33" d="M47.92,21.50 L47.78,21.06 L47.95,21.00 Z"/><path fill="#976e48" d="M42.27,18.83 L47.46,20.78 L43.01,23.06 Z"/><path fill="#976e48" d="M42.27,18.83 L43.01,23.06 L37.83,21.11 Z"/><path fill="#a2764e" d="M37.83,21.11 L37.33,21.36 L37.50,21.15 Z"/><path fill="#9b704a" d="M37.43,21.85 L37.22,21.67 L37.33,21.36 Z"/><path fill="#a4774e" d="M37.83,21.11 L37.55,21.41 L37.33,21.36 Z"/><path fill="#9d724b" d="M37.43,21.85 L37.33,21.36 L37.55,21.41 Z"/><path fill="#8c6643" d="M47.46,20.78 L47.78,21.06 L43.34,23.34 Z"/><path fill="#6a4d33" d="M43.34,23.34 L47.78,21.06 L47.92,21.50 Z"/><path fill="#a0754d" d="M43.01,23.06 L37.55,21.41 L37.83,21.11 Z"/><path fill="#996f49" d="M37.55,21.41 L42.62,23.80 L37.43,21.85 Z"/><path fill="#8c6643" d="M47.46,20.78 L43.34,23.34 L43.01,23.06 Z"/><path fill="#6a4d33" d="M43.34,23.34 L47.92,21.50 L43.47,23.77 Z"/><path fill="#a0754d" d="M43.01,23.06 L42.73,23.36 L37.55,21.41 Z"/><path fill="#996f49" d="M37.55,21.41 L42.73,23.36 L42.62,23.80 Z"/><path fill="#946c47" d="M43.01,23.06 L43.34,23.34 L43.05,23.50 Z"/><path fill="#996f49" d="M43.01,23.06 L43.05,23.50 L42.73,23.36 Z"/><path fill="#725337" d="M43.47,23.77 L43.05,23.50 L43.34,23.34 Z"/><path fill="#926a46" d="M42.62,23.80 L42.73,23.36 L43.05,23.50 Z"/><path fill="#715236" d="M43.47,23.77 L43.06,23.87 L43.05,23.50 Z"/><path fill="#8c6643" d="M42.62,23.80 L43.05,23.50 L43.06,23.87 Z"/><path fill="#9b714a" d="M41.95,8.04 L42.27,8.00 L10.36,24.33 Z"/><path fill="#6a4d33" d="M20.46,66.97 L20.60,66.78 L20.49,67.09 Z"/><path fill="#6a4d33" d="M20.46,66.97 L20.49,67.09 L20.32,67.30 Z"/><path fill="#815e3e" d="M9.97,67.32 L9.87,67.45 L9.76,67.14 Z"/><path fill="#7b5a3b" d="M9.97,67.32 L10.09,67.65 L9.87,67.45 Z"/><path fill="#6a4d33" d="M16.01,69.25 L20.46,66.97 L20.32,67.30 Z"/><path fill="#765639" d="M15.16,69.27 L10.09,67.65 L9.97,67.32 Z"/><path fill="#6a4d33" d="M16.01,69.25 L20.32,67.30 L15.88,69.58 Z"/><path fill="#765639" d="M15.16,69.27 L15.27,69.60 L10.09,67.65 Z"/><path fill="#6a4d33" d="M15.55,69.62 L15.59,69.60 L15.88,69.58 Z"/><path fill="#6a4d33" d="M15.55,69.62 L15.27,69.60 L15.59,69.60 Z"/><path fill="#6a4d33" d="M16.01,69.25 L15.88,69.58 L15.59,69.60 Z"/><path fill="#705236" d="M15.16,69.27 L15.59,69.60 L15.27,69.60 Z"/><path fill="#6a4d33" d="M16.01,69.25 L15.59,69.60 L15.60,69.34 Z"/><path fill="#725337" d="M15.16,69.27 L15.60,69.34 L15.59,69.60 Z"/><path fill="#6a4d33" d="M20.46,66.97 L20.60,35.36 L20.60,66.78 Z"/><path fill="#8f6845" d="M9.76,35.72 L9.97,67.32 L9.76,67.14 Z"/><path fill="#876241" d="M117.91,36.35 L42.27,8.00 L42.55,8.02 Z"/><path fill="#8a6542" d="M9.97,35.90 L15.16,69.27 L9.97,67.32 Z"/><path fill="#6a4d33" d="M16.01,37.83 L20.46,66.97 L16.01,69.25 Z"/><path fill="#9b714a" d="M41.95,8.04 L10.36,24.33 L10.04,24.36 Z"/><path fill="#6a4d33" d="M15.60,37.92 L16.01,69.25 L15.60,69.34 Z"/><path fill="#805d3d" d="M15.16,69.27 L15.60,37.92 L15.60,69.34 Z"/><path fill="#6a4d33" d="M20.46,66.97 L20.46,35.55 L20.60,35.36 Z"/><path fill="#8f6845" d="M9.76,35.72 L9.97,35.90 L9.97,67.32 Z"/><path fill="#6a4d33" d="M16.01,37.83 L20.46,35.55 L20.46,66.97 Z"/><path fill="#876241" d="M15.09,32.90 L20.00,34.84 L14.81,32.89 Z"/><path fill="#9b714a" d="M14.49,32.92 L14.81,32.89 L10.36,35.16 Z"/><path fill="#8a6542" d="M9.97,35.90 L15.16,37.85 L15.16,69.27 Z"/><path fill="#876241" d="M15.09,32.90 L20.27,34.85 L20.00,34.84 Z"/><path fill="#9b714a" d="M14.49,32.92 L10.36,35.16 L10.04,35.20 Z"/><path fill="#6a4d33" d="M15.60,37.92 L16.01,37.83 L16.01,69.25 Z"/><path fill="#805d3d" d="M15.16,69.27 L15.16,37.85 L15.60,37.92 Z"/><path fill="#815e3e" d="M20.00,34.84 L20.27,34.85 L20.49,35.05 Z"/><path fill="#6a4d33" d="M20.46,35.55 L20.49,35.05 L20.60,35.36 Z"/><path fill="#825e3e" d="M20.00,34.84 L20.49,35.05 L20.32,35.12 Z"/><path fill="#6a4d33" d="M20.46,35.55 L20.32,35.12 L20.49,35.05 Z"/><path fill="#976e48" d="M14.81,32.89 L20.00,34.84 L15.55,37.11 Z"/><path fill="#976e48" d="M14.81,32.89 L15.55,37.11 L10.36,35.16 Z"/><path fill="#a2764e" d="M10.36,35.16 L9.87,35.41 L10.04,35.20 Z"/><path fill="#9b704a" d="M9.97,35.90 L9.76,35.72 L9.87,35.41 Z"/><path fill="#a4774e" d="M10.36,35.16 L10.09,35.46 L9.87,35.41 Z"/><path fill="#9d724b" d="M9.97,35.90 L9.87,35.41 L10.09,35.46 Z"/><path fill="#815e3e" d="M9.97,34.82 L9.87,34.95 L9.76,34.64 Z"/><path fill="#7b5a3b" d="M9.97,34.82 L10.09,35.15 L9.87,34.95 Z"/><path fill="#8c6643" d="M15.55,37.11 L20.00,34.84 L20.32,35.12 Z"/><path fill="#6a4d33" d="M20.32,35.12 L20.46,35.55 L16.01,37.83 Z"/><path fill="#a0754d" d="M15.55,37.11 L10.09,35.46 L10.36,35.16 Z"/><path fill="#996f49" d="M10.09,35.46 L15.16,37.85 L9.97,35.90 Z"/><path fill="#8f6845" d="M9.76,34.64 L9.97,25.07 L9.97,34.82 Z"/><path fill="#8c6643" d="M15.55,37.11 L20.32,35.12 L15.88,37.39 Z"/><path fill="#6a4d33" d="M20.32,35.12 L16.01,37.83 L15.88,37.39 Z"/><path fill="#a0754d" d="M15.55,37.11 L15.27,37.41 L10.09,35.46 Z"/><path fill="#996f49" d="M10.09,35.46 L15.27,37.41 L15.16,37.85 Z"/><path fill="#8f6845" d="M9.76,34.64 L9.76,24.89 L9.97,25.07 Z"/><path fill="#946c47" d="M15.55,37.11 L15.88,37.39 L15.59,37.56 Z"/><path fill="#996f49" d="M15.55,37.11 L15.59,37.56 L15.27,37.41 Z"/><path fill="#725337" d="M16.01,37.83 L15.59,37.56 L15.88,37.39 Z"/><path fill="#926a46" d="M15.16,37.85 L15.27,37.41 L15.59,37.56 Z"/><path fill="#715236" d="M16.01,37.83 L15.60,37.92 L15.59,37.56 Z"/><path fill="#8c6643" d="M15.16,37.85 L15.59,37.56 L15.60,37.92 Z"/><path fill="#a2764e" d="M10.36,24.33 L9.87,24.57 L10.04,24.36 Z"/><path fill="#9b704a" d="M9.97,25.07 L9.76,24.89 L9.87,24.57 Z"/><path fill="#a4774e" d="M10.36,24.33 L10.09,24.63 L9.87,24.57 Z"/><path fill="#9d724b" d="M9.97,25.07 L9.87,24.57 L10.09,24.63 Z"/><path fill="#6a4d33" d="M118.09,79.30 L118.24,79.11 L118.13,79.43 Z"/><path fill="#6a4d33" d="M118.09,79.30 L118.13,79.43 L117.96,79.64 Z"/><path fill="#815e3e" d="M107.61,79.66 L107.51,79.78 L107.40,79.48 Z"/><path fill="#7b5a3b" d="M107.61,79.66 L107.73,79.98 L107.51,79.78 Z"/><path fill="#876241" d="M117.91,36.35 L117.64,36.33 L42.27,8.00 Z"/><path fill="#6a4d33" d="M118.09,79.30 L117.96,79.64 L113.51,81.91 Z"/><path fill="#765639" d="M107.61,79.66 L112.91,81.93 L107.73,79.98 Z"/><path fill="#a85b3d" d="M45.64,20.84 L74.73,36.42 L40.41,23.51 Z"/><path fill="#6a4d33" d="M118.09,79.30 L113.51,81.91 L113.65,81.58 Z"/><path fill="#765639" d="M107.61,79.66 L112.80,81.61 L112.91,81.93 Z"/><path fill="#995338" d="M40.41,23.51 L74.73,36.78 L40.41,23.87 Z"/><path fill="#976e48" d="M42.27,8.00 L85.73,52.66 L10.36,24.33 Z"/><path fill="#5a674b" d="M44.82,14.32 L83.18,46.16 L25.21,24.36 Z"/><path fill="#6a4d33" d="M113.19,81.95 L113.23,81.93 L113.51,81.91 Z"/><path fill="#6a4d33" d="M113.19,81.95 L112.91,81.93 L113.23,81.93 Z"/><path fill="#6a4d33" d="M113.65,81.58 L113.51,81.91 L113.23,81.93 Z"/><path fill="#705236" d="M112.80,81.61 L113.23,81.93 L112.91,81.93 Z"/><path fill="#6a4d33" d="M113.65,81.58 L113.23,81.93 L113.24,81.67 Z"/><path fill="#725337" d="M112.80,81.61 L113.24,81.67 L113.23,81.93 Z"/><path fill="#6a4d33" d="M118.09,79.30 L118.24,47.69 L118.24,79.11 Z"/><path fill="#8f6845" d="M107.40,48.06 L107.61,79.66 L107.40,79.48 Z"/><path fill="#8a6542" d="M107.61,48.24 L112.80,81.61 L107.61,79.66 Z"/><path fill="#6a4d33" d="M113.65,50.16 L118.09,79.30 L113.65,81.58 Z"/><path fill="#a85b3d" d="M45.64,20.84 L79.96,33.74 L74.73,36.42 Z"/><path fill="#6a4d33" d="M113.24,50.25 L113.65,81.58 L113.24,81.67 Z"/><path fill="#805d3d" d="M112.80,81.61 L113.24,50.25 L113.24,81.67 Z"/><path fill="#6a4d33" d="M118.09,79.30 L118.09,47.88 L118.24,47.69 Z"/><path fill="#765639" d="M85.34,63.16 L10.09,35.15 L9.97,34.82 Z"/><path fill="#8f6845" d="M107.40,48.06 L107.61,48.24 L107.61,79.66 Z"/><path fill="#525e45" d="M25.21,24.36 L83.18,46.61 L25.21,24.81 Z"/><path fill="#6a4d33" d="M113.65,50.16 L118.09,47.88 L118.09,79.30 Z"/><path fill="#8a6542" d="M9.97,25.07 L85.34,63.16 L9.97,34.82 Z"/><path fill="#5a674b" d="M44.82,14.32 L102.79,36.12 L83.18,46.16 Z"/><path fill="#976e48" d="M42.27,8.00 L117.64,36.33 L85.73,52.66 Z"/><path fill="#876241" d="M117.91,47.19 L112.45,45.22 L112.73,45.24 Z"/><path fill="#995338" d="M40.41,23.51 L74.73,36.42 L74.73,36.78 Z"/><path fill="#9b714a" d="M107.68,47.53 L112.12,45.26 L112.45,45.22 Z"/><path fill="#8a6542" d="M107.61,48.24 L112.80,50.19 L112.80,81.61 Z"/><path fill="#876241" d="M117.91,47.19 L117.64,47.17 L112.45,45.22 Z"/><path fill="#9b714a" d="M107.68,47.53 L112.45,45.22 L108.00,47.49 Z"/><path fill="#6a4d33" d="M113.24,50.25 L113.65,50.16 L113.65,81.58 Z"/><path fill="#805d3d" d="M112.80,81.61 L112.80,50.19 L113.24,50.25 Z"/><path fill="#815e3e" d="M117.64,47.17 L117.91,47.19 L118.13,47.38 Z"/><path fill="#6a4d33" d="M118.09,47.88 L118.13,47.38 L118.24,47.69 Z"/><path fill="#825e3e" d="M117.64,47.17 L118.13,47.38 L117.96,47.45 Z"/><path fill="#6a4d33" d="M118.09,47.88 L117.96,47.45 L118.13,47.38 Z"/><path fill="#a0754d" d="M85.73,52.66 L10.09,24.63 L10.36,24.33 Z"/><path fill="#976e48" d="M112.45,45.22 L117.64,47.17 L113.19,49.44 Z"/><path fill="#996f49" d="M85.45,52.96 L9.97,25.07 L10.09,24.63 Z"/><path fill="#6a4d33" d="M118.09,46.80 L118.24,46.61 L118.13,46.92 Z"/><path fill="#6a4d33" d="M118.09,46.80 L118.13,46.92 L117.96,47.13 Z"/><path fill="#976e48" d="M112.45,45.22 L113.19,49.44 L108.00,47.49 Z"/><path fill="#a2764e" d="M108.00,47.49 L107.51,47.74 L107.68,47.53 Z"/><path fill="#9b704a" d="M107.61,48.24 L107.40,48.06 L107.51,47.74 Z"/><path fill="#a4774e" d="M108.00,47.49 L107.73,47.79 L107.51,47.74 Z"/><path fill="#9d724b" d="M107.61,48.24 L107.51,47.74 L107.73,47.79 Z"/><path fill="#8c6643" d="M117.64,47.17 L117.96,47.45 L113.51,49.72 Z"/><path fill="#6a4d33" d="M113.51,49.72 L117.96,47.45 L118.09,47.88 Z"/><path fill="#6a4d33" d="M118.09,37.05 L118.24,46.61 L118.09,46.80 Z"/><path fill="#a0754d" d="M108.00,47.49 L112.91,49.74 L107.73,47.79 Z"/><path fill="#996f49" d="M112.91,49.74 L107.61,48.24 L107.73,47.79 Z"/><path fill="#753f2b" d="M74.73,36.42 L79.96,33.74 L79.96,34.10 Z"/><path fill="#8c6643" d="M117.64,47.17 L113.51,49.72 L113.19,49.44 Z"/><path fill="#6a4d33" d="M113.51,49.72 L118.09,47.88 L113.65,50.16 Z"/><path fill="#a0754d" d="M108.00,47.49 L113.19,49.44 L112.91,49.74 Z"/><path fill="#996f49" d="M112.91,49.74 L112.80,50.19 L107.61,48.24 Z"/><path fill="#6a4d33" d="M118.09,37.05 L118.24,36.86 L118.24,46.61 Z"/><path fill="#753f2b" d="M74.73,36.42 L79.96,34.10 L74.73,36.78 Z"/><path fill="#946c47" d="M113.19,49.44 L113.51,49.72 L113.23,49.89 Z"/><path fill="#996f49" d="M113.19,49.44 L113.23,49.89 L112.91,49.74 Z"/><path fill="#725337" d="M113.65,50.16 L113.23,49.89 L113.51,49.72 Z"/><path fill="#926a46" d="M112.80,50.19 L112.91,49.74 L113.23,49.89 Z"/><path fill="#715236" d="M113.65,50.16 L113.24,50.25 L113.23,49.89 Z"/><path fill="#8c6643" d="M112.80,50.19 L113.23,49.89 L113.24,50.25 Z"/><path fill="#815e3e" d="M117.64,36.33 L117.91,36.35 L118.13,36.55 Z"/><path fill="#6a4d33" d="M118.09,37.05 L118.13,36.55 L118.24,36.86 Z"/><path fill="#825e3e" d="M117.64,36.33 L118.13,36.55 L117.96,36.62 Z"/><path fill="#6a4d33" d="M118.09,37.05 L117.96,36.62 L118.13,36.55 Z"/><path fill="#525e45" d="M25.21,24.36 L83.18,46.16 L83.18,46.61 Z"/><path fill="#6a4d33" d="M118.09,46.80 L117.96,47.13 L86.05,63.46 Z"/><path fill="#3f4834" d="M83.18,46.16 L102.79,36.12 L102.79,36.57 Z"/><path fill="#6a4d33" d="M90.63,93.36 L90.78,93.16 L90.67,93.48 Z"/><path fill="#6a4d33" d="M90.63,93.36 L90.67,93.48 L90.50,93.69 Z"/><path fill="#815e3e" d="M80.15,93.71 L80.05,93.84 L79.94,93.53 Z"/><path fill="#7b5a3b" d="M80.15,93.71 L80.26,94.03 L80.05,93.84 Z"/><path fill="#765639" d="M85.34,63.16 L85.45,63.48 L10.09,35.15 Z"/><path fill="#6a4d33" d="M86.19,53.38 L118.09,37.05 L118.09,46.80 Z"/><path fill="#6a4d33" d="M86.19,95.63 L90.63,93.36 L90.50,93.69 Z"/><path fill="#765639" d="M80.15,93.71 L85.45,95.98 L80.26,94.03 Z"/><path fill="#6a4d33" d="M86.19,95.63 L90.50,93.69 L86.05,95.96 Z"/><path fill="#8c6643" d="M117.64,36.33 L117.96,36.62 L86.05,52.94 Z"/><path fill="#6a4d33" d="M117.96,36.62 L118.09,37.05 L86.19,53.38 Z"/><path fill="#765639" d="M80.15,93.71 L85.34,95.66 L85.45,95.98 Z"/><path fill="#6a4d33" d="M85.73,96.00 L85.77,95.99 L86.05,95.96 Z"/><path fill="#6a4d33" d="M85.73,96.00 L85.45,95.98 L85.77,95.99 Z"/><path fill="#8a6542" d="M9.97,25.07 L85.34,53.41 L85.34,63.16 Z"/><path fill="#6a4d33" d="M86.19,95.63 L86.05,95.96 L85.77,95.99 Z"/><path fill="#705236" d="M85.34,95.66 L85.77,95.99 L85.45,95.98 Z"/><path fill="#6a4d33" d="M86.19,95.63 L85.77,95.99 L85.78,95.72 Z"/><path fill="#725337" d="M85.34,95.66 L85.78,95.72 L85.77,95.99 Z"/><path fill="#6a4d33" d="M90.63,93.36 L90.78,61.74 L90.78,93.16 Z"/><path fill="#3f4834" d="M83.18,46.16 L102.79,36.57 L83.18,46.61 Z"/><path fill="#8f6845" d="M79.94,62.11 L80.15,93.71 L79.94,93.53 Z"/><path fill="#a0754d" d="M85.73,52.66 L85.45,52.96 L10.09,24.63 Z"/><path fill="#996f49" d="M85.45,52.96 L85.34,53.41 L9.97,25.07 Z"/><path fill="#8a6542" d="M80.15,62.29 L85.34,95.66 L80.15,93.71 Z"/><path fill="#6a4d33" d="M86.19,64.21 L90.63,93.36 L86.19,95.63 Z"/><path fill="#6a4d33" d="M118.09,46.80 L86.05,63.46 L86.19,63.13 Z"/><path fill="#6a4d33" d="M85.78,64.30 L86.19,95.63 L85.78,95.72 Z"/><path fill="#805d3d" d="M85.34,95.66 L85.78,64.30 L85.78,95.72 Z"/><path fill="#6a4d33" d="M90.63,93.36 L90.63,61.94 L90.78,61.74 Z"/><path fill="#8f6845" d="M79.94,62.11 L80.15,62.29 L80.15,93.71 Z"/><path fill="#6a4d33" d="M86.19,53.38 L118.09,46.80 L86.19,63.13 Z"/><path fill="#6a4d33" d="M86.19,64.21 L90.63,61.94 L90.63,93.36 Z"/><path fill="#876241" d="M90.45,61.24 L84.99,59.27 L85.27,59.29 Z"/><path fill="#9b714a" d="M84.66,59.31 L84.99,59.27 L80.54,61.55 Z"/><path fill="#8a6542" d="M80.15,62.29 L85.34,64.24 L85.34,95.66 Z"/><path fill="#876241" d="M90.45,61.24 L90.17,61.22 L84.99,59.27 Z"/><path fill="#8c6643" d="M117.64,36.33 L86.05,52.94 L85.73,52.66 Z"/><path fill="#9b714a" d="M84.66,59.31 L80.54,61.55 L80.22,61.58 Z"/><path fill="#6a4d33" d="M117.96,36.62 L86.19,53.38 L86.05,52.94 Z"/><path fill="#6a4d33" d="M85.78,64.30 L86.19,64.21 L86.19,95.63 Z"/><path fill="#805d3d" d="M85.34,95.66 L85.34,64.24 L85.78,64.30 Z"/><path fill="#815e3e" d="M90.17,61.22 L90.45,61.24 L90.67,61.43 Z"/><path fill="#6a4d33" d="M90.63,61.94 L90.67,61.43 L90.78,61.74 Z"/><path fill="#825e3e" d="M90.17,61.22 L90.67,61.43 L90.50,61.50 Z"/><path fill="#6a4d33" d="M90.63,61.94 L90.50,61.50 L90.67,61.43 Z"/><path fill="#976e48" d="M84.99,59.27 L90.17,61.22 L85.73,63.50 Z"/><path fill="#976e48" d="M84.99,59.27 L85.73,63.50 L80.54,61.55 Z"/><path fill="#a2764e" d="M80.54,61.55 L80.05,61.79 L80.22,61.58 Z"/><path fill="#9b704a" d="M80.15,62.29 L79.94,62.11 L80.05,61.79 Z"/><path fill="#a4774e" d="M80.54,61.55 L80.26,61.85 L80.05,61.79 Z"/><path fill="#9d724b" d="M80.15,62.29 L80.05,61.79 L80.26,61.85 Z"/><path fill="#8c6643" d="M85.73,63.50 L90.17,61.22 L90.50,61.50 Z"/><path fill="#6a4d33" d="M90.50,61.50 L90.63,61.94 L86.19,64.21 Z"/><path fill="#a0754d" d="M80.54,61.55 L85.45,63.80 L80.26,61.85 Z"/><path fill="#996f49" d="M85.45,63.80 L80.15,62.29 L80.26,61.85 Z"/><path fill="#8c6643" d="M85.73,63.50 L90.50,61.50 L86.05,63.78 Z"/><path fill="#6a4d33" d="M90.50,61.50 L86.19,64.21 L86.05,63.78 Z"/><path fill="#a0754d" d="M80.54,61.55 L85.73,63.50 L85.45,63.80 Z"/><path fill="#996f49" d="M85.45,63.80 L85.34,64.24 L80.15,62.29 Z"/><path fill="#946c47" d="M85.73,63.50 L86.05,63.78 L85.77,63.94 Z"/><path fill="#996f49" d="M85.73,63.50 L85.77,63.94 L85.45,63.80 Z"/><path fill="#725337" d="M86.19,64.21 L85.77,63.94 L86.05,63.78 Z"/><path fill="#926a46" d="M85.34,64.24 L85.45,63.80 L85.77,63.94 Z"/><path fill="#715236" d="M86.19,64.21 L85.78,64.30 L85.77,63.94 Z"/><path fill="#8c6643" d="M85.34,64.24 L85.77,63.94 L85.78,64.30 Z"/><path fill="#6a4d33" d="M85.73,63.50 L85.77,63.48 L86.05,63.46 Z"/><path fill="#6a4d33" d="M85.73,63.50 L85.45,63.48 L85.77,63.48 Z"/><path fill="#6a4d33" d="M86.19,63.13 L86.05,63.46 L85.77,63.48 Z"/><path fill="#705236" d="M85.34,63.16 L85.77,63.48 L85.45,63.48 Z"/><path fill="#6a4d33" d="M86.19,63.13 L85.77,63.48 L85.78,63.22 Z"/><path fill="#725337" d="M85.34,63.16 L85.78,63.22 L85.77,63.48 Z"/><path fill="#6a4d33" d="M85.78,63.22 L86.19,53.38 L86.19,63.13 Z"/><path fill="#805d3d" d="M85.34,53.41 L85.78,63.22 L85.34,63.16 Z"/><path fill="#6a4d33" d="M85.78,63.22 L85.78,53.47 L86.19,53.38 Z"/><path fill="#805d3d" d="M85.34,53.41 L85.78,53.47 L85.78,63.22 Z"/><path fill="#946c47" d="M85.73,52.66 L86.05,52.94 L85.77,53.11 Z"/><path fill="#996f49" d="M85.73,52.66 L85.77,53.11 L85.45,52.96 Z"/><path fill="#725337" d="M86.19,53.38 L85.77,53.11 L86.05,52.94 Z"/><path fill="#926a46" d="M85.34,53.41 L85.45,52.96 L85.77,53.11 Z"/><path fill="#715236" d="M86.19,53.38 L85.78,53.47 L85.77,53.11 Z"/><path fill="#8c6643" d="M85.34,53.41 L85.77,53.11 L85.78,53.47 Z"/>
</svg>
